<mxfile host="app.diagrams.net" agent="Mozilla/5.0 (Windows NT 10.0; Win64; x64; rv:129.0) Gecko/20100101 Firefox/129.0" version="24.7.7">
  <diagram name="Page-1" id="o-qdJoTrw0jcxVrvrAPI">
    <mxGraphModel dx="1588" dy="772" grid="1" gridSize="10" guides="1" tooltips="1" connect="1" arrows="1" fold="1" page="1" pageScale="1" pageWidth="850" pageHeight="1100" math="0" shadow="0">
      <root>
        <mxCell id="0" />
        <mxCell id="1" parent="0" />
        <mxCell id="grapcn1TdwACLMoLaepa-11" style="edgeStyle=orthogonalEdgeStyle;rounded=0;orthogonalLoop=1;jettySize=auto;html=1;exitX=0.875;exitY=0.5;exitDx=0;exitDy=0;exitPerimeter=0;entryX=0;entryY=0.5;entryDx=0;entryDy=0;" edge="1" parent="1" target="grapcn1TdwACLMoLaepa-51">
          <mxGeometry relative="1" as="geometry">
            <mxPoint x="67" y="90" as="sourcePoint" />
            <mxPoint x="270" y="90.5" as="targetPoint" />
          </mxGeometry>
        </mxCell>
        <mxCell id="grapcn1TdwACLMoLaepa-1" value="&lt;div style=&quot;font-size: 13px;&quot;&gt;&lt;font style=&quot;font-size: 16px;&quot;&gt;User&#39;s Query&lt;/font&gt;&lt;/div&gt;" style="ellipse;shape=cloud;whiteSpace=wrap;html=1;" vertex="1" parent="1">
          <mxGeometry x="30" y="28" width="160" height="100" as="geometry" />
        </mxCell>
        <mxCell id="grapcn1TdwACLMoLaepa-12" style="edgeStyle=orthogonalEdgeStyle;rounded=0;orthogonalLoop=1;jettySize=auto;html=1;entryX=0;entryY=0.5;entryDx=0;entryDy=0;" edge="1" parent="1">
          <mxGeometry relative="1" as="geometry">
            <mxPoint x="400" y="89.55555555555554" as="sourcePoint" />
            <mxPoint x="517" y="89" as="targetPoint" />
          </mxGeometry>
        </mxCell>
        <mxCell id="grapcn1TdwACLMoLaepa-21" style="edgeStyle=orthogonalEdgeStyle;rounded=0;orthogonalLoop=1;jettySize=auto;html=1;entryX=0.5;entryY=0;entryDx=0;entryDy=0;" edge="1" parent="1" source="grapcn1TdwACLMoLaepa-3">
          <mxGeometry relative="1" as="geometry">
            <mxPoint x="587" y="282" as="targetPoint" />
          </mxGeometry>
        </mxCell>
        <mxCell id="grapcn1TdwACLMoLaepa-3" value="&lt;div style=&quot;font-size: 15px;&quot;&gt;&lt;font style=&quot;font-size: 15px;&quot;&gt;Get Schema&lt;/font&gt;&lt;/div&gt;&lt;div style=&quot;font-size: 15px;&quot;&gt;&lt;font style=&quot;font-size: 15px;&quot;&gt;&lt;font style=&quot;font-size: 15px;&quot;&gt;Tool&lt;/font&gt;&lt;font style=&quot;font-size: 15px;&quot;&gt;&lt;br&gt;&lt;/font&gt;&lt;/font&gt;&lt;/div&gt;" style="rounded=1;whiteSpace=wrap;html=1;" vertex="1" parent="1">
          <mxGeometry x="517" y="50" width="140" height="80" as="geometry" />
        </mxCell>
        <mxCell id="grapcn1TdwACLMoLaepa-29" style="edgeStyle=orthogonalEdgeStyle;rounded=0;orthogonalLoop=1;jettySize=auto;html=1;exitX=0.391;exitY=1.003;exitDx=0;exitDy=0;entryX=0.378;entryY=-0.006;entryDx=0;entryDy=0;exitPerimeter=0;entryPerimeter=0;" edge="1" parent="1" source="grapcn1TdwACLMoLaepa-53">
          <mxGeometry relative="1" as="geometry">
            <mxPoint x="567" y="361.84000000000003" as="sourcePoint" />
            <mxPoint x="567.48" y="501.52" as="targetPoint" />
            <Array as="points">
              <mxPoint x="567" y="502" />
            </Array>
          </mxGeometry>
        </mxCell>
        <mxCell id="grapcn1TdwACLMoLaepa-30" style="edgeStyle=orthogonalEdgeStyle;rounded=0;orthogonalLoop=1;jettySize=auto;html=1;exitX=0.75;exitY=0;exitDx=0;exitDy=0;entryX=0.783;entryY=1.003;entryDx=0;entryDy=0;entryPerimeter=0;" edge="1" parent="1" target="grapcn1TdwACLMoLaepa-53">
          <mxGeometry relative="1" as="geometry">
            <mxPoint x="627" y="502" as="sourcePoint" />
            <mxPoint x="627" y="362" as="targetPoint" />
          </mxGeometry>
        </mxCell>
        <mxCell id="grapcn1TdwACLMoLaepa-31" style="edgeStyle=orthogonalEdgeStyle;rounded=0;orthogonalLoop=1;jettySize=auto;html=1;exitX=0.5;exitY=1;exitDx=0;exitDy=0;entryX=0.5;entryY=0;entryDx=0;entryDy=0;" edge="1" parent="1" source="grapcn1TdwACLMoLaepa-34" target="grapcn1TdwACLMoLaepa-7">
          <mxGeometry relative="1" as="geometry">
            <Array as="points" />
          </mxGeometry>
        </mxCell>
        <mxCell id="grapcn1TdwACLMoLaepa-35" style="edgeStyle=orthogonalEdgeStyle;rounded=0;orthogonalLoop=1;jettySize=auto;html=1;exitX=0.5;exitY=1;exitDx=0;exitDy=0;entryX=0.5;entryY=0;entryDx=0;entryDy=0;" edge="1" parent="1" source="grapcn1TdwACLMoLaepa-36" target="grapcn1TdwACLMoLaepa-6">
          <mxGeometry relative="1" as="geometry" />
        </mxCell>
        <mxCell id="grapcn1TdwACLMoLaepa-6" value="&lt;font style=&quot;font-size: 15px;&quot;&gt;DQL Query &lt;br&gt;&lt;/font&gt;&lt;div style=&quot;font-size: 15px;&quot;&gt;&lt;font style=&quot;font-size: 15px;&quot;&gt;Tool&lt;/font&gt;&lt;/div&gt;" style="rounded=1;whiteSpace=wrap;html=1;" vertex="1" parent="1">
          <mxGeometry x="634" y="762" width="150" height="70" as="geometry" />
        </mxCell>
        <mxCell id="grapcn1TdwACLMoLaepa-38" style="edgeStyle=orthogonalEdgeStyle;rounded=0;orthogonalLoop=1;jettySize=auto;html=1;entryX=0.949;entryY=0.289;entryDx=0;entryDy=0;exitX=0;exitY=0.25;exitDx=0;exitDy=0;entryPerimeter=0;" edge="1" parent="1" source="grapcn1TdwACLMoLaepa-7" target="grapcn1TdwACLMoLaepa-40">
          <mxGeometry relative="1" as="geometry">
            <mxPoint x="207" y="797" as="targetPoint" />
            <Array as="points">
              <mxPoint x="297" y="780" />
            </Array>
          </mxGeometry>
        </mxCell>
        <mxCell id="grapcn1TdwACLMoLaepa-7" value="&lt;font style=&quot;font-size: 15px;&quot;&gt;DML Query &lt;br&gt;&lt;/font&gt;&lt;div style=&quot;font-size: 15px;&quot;&gt;&lt;font style=&quot;font-size: 15px;&quot;&gt;Tool&lt;/font&gt;&lt;/div&gt;" style="rounded=1;whiteSpace=wrap;html=1;" vertex="1" parent="1">
          <mxGeometry x="387" y="762" width="150" height="70" as="geometry" />
        </mxCell>
        <mxCell id="grapcn1TdwACLMoLaepa-10" value="&lt;div style=&quot;font-size: 21px;&quot;&gt;&lt;font style=&quot;font-size: 21px;&quot;&gt;Generate&amp;nbsp;&lt;/font&gt;&lt;/div&gt;&lt;div style=&quot;font-size: 21px;&quot;&gt;&lt;font style=&quot;font-size: 21px;&quot;&gt;Response&lt;/font&gt;&lt;/div&gt;" style="ellipse;shape=cloud;whiteSpace=wrap;html=1;" vertex="1" parent="1">
          <mxGeometry x="107" y="262" width="240" height="160" as="geometry" />
        </mxCell>
        <mxCell id="grapcn1TdwACLMoLaepa-17" style="edgeStyle=orthogonalEdgeStyle;rounded=0;orthogonalLoop=1;jettySize=auto;html=1;entryX=0.4;entryY=0.1;entryDx=0;entryDy=0;entryPerimeter=0;" edge="1" parent="1" source="grapcn1TdwACLMoLaepa-19" target="grapcn1TdwACLMoLaepa-10">
          <mxGeometry relative="1" as="geometry" />
        </mxCell>
        <mxCell id="grapcn1TdwACLMoLaepa-18" value="" style="edgeStyle=orthogonalEdgeStyle;rounded=0;orthogonalLoop=1;jettySize=auto;html=1;entryX=0.5;entryY=0;entryDx=0;entryDy=0;endArrow=none;endFill=0;exitX=0.092;exitY=1.006;exitDx=0;exitDy=0;exitPerimeter=0;" edge="1" parent="1" source="grapcn1TdwACLMoLaepa-51" target="grapcn1TdwACLMoLaepa-19">
          <mxGeometry relative="1" as="geometry">
            <mxPoint x="282" y="128" as="sourcePoint" />
            <mxPoint x="239.5" y="152" as="targetPoint" />
            <Array as="points">
              <mxPoint x="291" y="143" />
              <mxPoint x="240" y="143" />
            </Array>
          </mxGeometry>
        </mxCell>
        <mxCell id="grapcn1TdwACLMoLaepa-19" value="&lt;div style=&quot;font-size: 10px;&quot;&gt;&lt;font style=&quot;font-size: 10px;&quot;&gt;Irrelevant&lt;/font&gt;&lt;/div&gt;&lt;div style=&quot;font-size: 10px;&quot;&gt;&lt;font style=&quot;font-size: 10px;&quot;&gt;&lt;font style=&quot;font-size: 10px;&quot;&gt;Query&lt;/font&gt;&lt;font style=&quot;font-size: 10px;&quot;&gt;&lt;br&gt;&lt;/font&gt;&lt;/font&gt;&lt;/div&gt;&lt;font style=&quot;font-size: 10px;&quot;&gt;&amp;nbsp;to DB&lt;/font&gt;" style="rhombus;whiteSpace=wrap;html=1;" vertex="1" parent="1">
          <mxGeometry x="197" y="162" width="85" height="79" as="geometry" />
        </mxCell>
        <mxCell id="grapcn1TdwACLMoLaepa-22" style="edgeStyle=orthogonalEdgeStyle;rounded=0;orthogonalLoop=1;jettySize=auto;html=1;entryX=0.88;entryY=0.25;entryDx=0;entryDy=0;entryPerimeter=0;" edge="1" parent="1" source="grapcn1TdwACLMoLaepa-24" target="grapcn1TdwACLMoLaepa-10">
          <mxGeometry relative="1" as="geometry">
            <mxPoint x="327" y="322" as="targetPoint" />
            <Array as="points">
              <mxPoint x="318" y="242" />
            </Array>
          </mxGeometry>
        </mxCell>
        <mxCell id="grapcn1TdwACLMoLaepa-23" value="" style="edgeStyle=orthogonalEdgeStyle;rounded=0;orthogonalLoop=1;jettySize=auto;html=1;endArrow=none;endFill=0;exitX=0.12;exitY=0.004;exitDx=0;exitDy=0;exitPerimeter=0;" edge="1" parent="1" source="grapcn1TdwACLMoLaepa-53" target="grapcn1TdwACLMoLaepa-24">
          <mxGeometry relative="1" as="geometry">
            <mxPoint x="526.04" y="281.44000000000005" as="sourcePoint" />
            <mxPoint x="327" y="322" as="targetPoint" />
          </mxGeometry>
        </mxCell>
        <mxCell id="grapcn1TdwACLMoLaepa-24" value="&lt;div&gt;Ask for&amp;nbsp;&lt;/div&gt;&lt;div&gt;more&lt;/div&gt;&lt;div&gt;Input&lt;br&gt;&lt;/div&gt;" style="rhombus;whiteSpace=wrap;html=1;" vertex="1" parent="1">
          <mxGeometry x="377" y="202" width="80" height="80" as="geometry" />
        </mxCell>
        <mxCell id="grapcn1TdwACLMoLaepa-25" style="edgeStyle=orthogonalEdgeStyle;rounded=0;orthogonalLoop=1;jettySize=auto;html=1;exitX=0;exitY=0.5;exitDx=0;exitDy=0;entryX=0.875;entryY=0.5;entryDx=0;entryDy=0;entryPerimeter=0;" edge="1" parent="1" source="grapcn1TdwACLMoLaepa-27" target="grapcn1TdwACLMoLaepa-10">
          <mxGeometry relative="1" as="geometry">
            <Array as="points" />
          </mxGeometry>
        </mxCell>
        <mxCell id="grapcn1TdwACLMoLaepa-26" value="" style="edgeStyle=orthogonalEdgeStyle;rounded=0;orthogonalLoop=1;jettySize=auto;html=1;exitX=0;exitY=0.75;exitDx=0;exitDy=0;endArrow=none;endFill=0;entryX=1;entryY=0.5;entryDx=0;entryDy=0;" edge="1" parent="1" target="grapcn1TdwACLMoLaepa-27">
          <mxGeometry relative="1" as="geometry">
            <mxPoint x="507" y="342" as="sourcePoint" />
            <mxPoint x="299" y="390" as="targetPoint" />
            <Array as="points" />
          </mxGeometry>
        </mxCell>
        <mxCell id="grapcn1TdwACLMoLaepa-27" value="&lt;div&gt;Final&lt;/div&gt;&lt;div&gt;Answer&lt;br&gt;&lt;/div&gt;" style="rhombus;whiteSpace=wrap;html=1;" vertex="1" parent="1">
          <mxGeometry x="377" y="302" width="80" height="80" as="geometry" />
        </mxCell>
        <mxCell id="grapcn1TdwACLMoLaepa-33" value="" style="edgeStyle=orthogonalEdgeStyle;rounded=0;orthogonalLoop=1;jettySize=auto;html=1;exitX=0;exitY=0.5;exitDx=0;exitDy=0;entryX=0.5;entryY=0;entryDx=0;entryDy=0;endArrow=none;endFill=0;" edge="1" parent="1" target="grapcn1TdwACLMoLaepa-34">
          <mxGeometry relative="1" as="geometry">
            <mxPoint x="507" y="542" as="sourcePoint" />
            <mxPoint x="462" y="762" as="targetPoint" />
            <Array as="points">
              <mxPoint x="462" y="542" />
            </Array>
          </mxGeometry>
        </mxCell>
        <mxCell id="grapcn1TdwACLMoLaepa-34" value="&lt;div&gt;&lt;font style=&quot;font-size: 10px;&quot;&gt;If&lt;br&gt;&lt;/font&gt;&lt;/div&gt;&lt;div&gt;&lt;font style=&quot;font-size: 10px;&quot;&gt;DML, DDL, DCL&lt;/font&gt;&lt;/div&gt;&lt;div&gt;&lt;font style=&quot;font-size: 10px;&quot;&gt;Query&lt;br&gt;&lt;/font&gt;&lt;/div&gt;" style="rhombus;whiteSpace=wrap;html=1;" vertex="1" parent="1">
          <mxGeometry x="410" y="592" width="105" height="99" as="geometry" />
        </mxCell>
        <mxCell id="grapcn1TdwACLMoLaepa-37" value="" style="edgeStyle=orthogonalEdgeStyle;rounded=0;orthogonalLoop=1;jettySize=auto;html=1;exitX=1;exitY=0.5;exitDx=0;exitDy=0;entryX=0.5;entryY=0;entryDx=0;entryDy=0;endArrow=none;endFill=0;" edge="1" parent="1" source="grapcn1TdwACLMoLaepa-54" target="grapcn1TdwACLMoLaepa-36">
          <mxGeometry relative="1" as="geometry">
            <mxPoint x="667" y="542" as="sourcePoint" />
            <mxPoint x="709" y="762" as="targetPoint" />
          </mxGeometry>
        </mxCell>
        <mxCell id="grapcn1TdwACLMoLaepa-36" value="&lt;div&gt;If&lt;/div&gt;&lt;div&gt;DQL Query&lt;/div&gt;" style="rhombus;whiteSpace=wrap;html=1;" vertex="1" parent="1">
          <mxGeometry x="656.5" y="602" width="105" height="99" as="geometry" />
        </mxCell>
        <mxCell id="grapcn1TdwACLMoLaepa-41" style="edgeStyle=orthogonalEdgeStyle;rounded=0;orthogonalLoop=1;jettySize=auto;html=1;entryX=0;entryY=0.75;entryDx=0;entryDy=0;exitX=0.951;exitY=0.716;exitDx=0;exitDy=0;exitPerimeter=0;" edge="1" parent="1" source="grapcn1TdwACLMoLaepa-40" target="grapcn1TdwACLMoLaepa-7">
          <mxGeometry relative="1" as="geometry" />
        </mxCell>
        <mxCell id="grapcn1TdwACLMoLaepa-42" value="&lt;b&gt;Yes&lt;/b&gt;" style="edgeLabel;html=1;align=center;verticalAlign=middle;resizable=0;points=[];" vertex="1" connectable="0" parent="grapcn1TdwACLMoLaepa-41">
          <mxGeometry x="-0.2213" relative="1" as="geometry">
            <mxPoint x="3" as="offset" />
          </mxGeometry>
        </mxCell>
        <mxCell id="grapcn1TdwACLMoLaepa-46" style="edgeStyle=orthogonalEdgeStyle;rounded=0;orthogonalLoop=1;jettySize=auto;html=1;exitX=1;exitY=0.5;exitDx=0;exitDy=0;entryX=0.128;entryY=1.013;entryDx=0;entryDy=0;entryPerimeter=0;" edge="1" parent="1" source="grapcn1TdwACLMoLaepa-49" target="grapcn1TdwACLMoLaepa-53">
          <mxGeometry relative="1" as="geometry">
            <mxPoint x="407" y="462" as="sourcePoint" />
            <mxPoint x="527" y="362" as="targetPoint" />
            <Array as="points">
              <mxPoint x="527" y="462" />
            </Array>
          </mxGeometry>
        </mxCell>
        <mxCell id="grapcn1TdwACLMoLaepa-40" value="&lt;div&gt;User&#39;s &lt;br&gt;&lt;/div&gt;&lt;div&gt;Confirmation&lt;/div&gt;" style="ellipse;whiteSpace=wrap;html=1;" vertex="1" parent="1">
          <mxGeometry x="162" y="757" width="120" height="80" as="geometry" />
        </mxCell>
        <mxCell id="grapcn1TdwACLMoLaepa-43" style="edgeStyle=orthogonalEdgeStyle;rounded=0;orthogonalLoop=1;jettySize=auto;html=1;entryX=0.329;entryY=1.001;entryDx=0;entryDy=0;entryPerimeter=0;" edge="1" parent="1" target="grapcn1TdwACLMoLaepa-54">
          <mxGeometry relative="1" as="geometry">
            <mxPoint x="537" y="780" as="sourcePoint" />
            <mxPoint x="557.4" y="582.72" as="targetPoint" />
          </mxGeometry>
        </mxCell>
        <mxCell id="grapcn1TdwACLMoLaepa-44" style="edgeStyle=orthogonalEdgeStyle;rounded=0;orthogonalLoop=1;jettySize=auto;html=1;exitX=0;exitY=0.25;exitDx=0;exitDy=0;entryX=0.654;entryY=1;entryDx=0;entryDy=0;entryPerimeter=0;" edge="1" parent="1" source="grapcn1TdwACLMoLaepa-6" target="grapcn1TdwACLMoLaepa-54">
          <mxGeometry relative="1" as="geometry">
            <mxPoint x="607" y="582" as="targetPoint" />
          </mxGeometry>
        </mxCell>
        <mxCell id="grapcn1TdwACLMoLaepa-47" value="" style="edgeStyle=orthogonalEdgeStyle;rounded=0;orthogonalLoop=1;jettySize=auto;html=1;exitX=0.5;exitY=0;exitDx=0;exitDy=0;endArrow=none;endFill=0;" edge="1" parent="1" source="grapcn1TdwACLMoLaepa-40" target="grapcn1TdwACLMoLaepa-49">
          <mxGeometry relative="1" as="geometry">
            <mxPoint x="222" y="757" as="sourcePoint" />
            <mxPoint x="327" y="462" as="targetPoint" />
            <Array as="points">
              <mxPoint x="222" y="462" />
            </Array>
          </mxGeometry>
        </mxCell>
        <mxCell id="grapcn1TdwACLMoLaepa-49" value="&lt;div&gt;No or&amp;nbsp;&lt;/div&gt;&lt;div&gt;Update the&amp;nbsp;&lt;/div&gt;&lt;div&gt;Query&lt;/div&gt;" style="shape=hexagon;perimeter=hexagonPerimeter2;whiteSpace=wrap;html=1;fixedSize=1;" vertex="1" parent="1">
          <mxGeometry x="290" y="422" width="120" height="80" as="geometry" />
        </mxCell>
        <mxCell id="grapcn1TdwACLMoLaepa-51" value="&lt;font style=&quot;font-size: 14px;&quot;&gt;Table Selection&lt;br&gt;Assistant&lt;br&gt;&lt;/font&gt;" style="shape=process;whiteSpace=wrap;html=1;backgroundOutline=1;fillColor=#dae8fc;strokeColor=#6c8ebf;" vertex="1" parent="1">
          <mxGeometry x="260" y="40" width="149" height="80" as="geometry" />
        </mxCell>
        <mxCell id="grapcn1TdwACLMoLaepa-53" value="&lt;font style=&quot;font-size: 16px;&quot;&gt;SQL Query &lt;br&gt;Assistant&lt;br&gt;&lt;/font&gt;" style="shape=process;whiteSpace=wrap;html=1;backgroundOutline=1;fillColor=#d5e8d4;strokeColor=#82b366;" vertex="1" parent="1">
          <mxGeometry x="507" y="282" width="153" height="78" as="geometry" />
        </mxCell>
        <mxCell id="grapcn1TdwACLMoLaepa-54" value="&lt;div&gt;&lt;font style=&quot;font-size: 15px;&quot;&gt;Examine&lt;/font&gt; &lt;font style=&quot;font-size: 16px;&quot;&gt;Query &lt;/font&gt;&lt;/div&gt;&lt;font style=&quot;font-size: 16px;&quot;&gt;Assistant&lt;br&gt;&lt;/font&gt;" style="shape=process;whiteSpace=wrap;html=1;backgroundOutline=1;fillColor=#e1d5e7;strokeColor=#9673a6;" vertex="1" parent="1">
          <mxGeometry x="507" y="502" width="153" height="78" as="geometry" />
        </mxCell>
      </root>
    </mxGraphModel>
  </diagram>
</mxfile>
